<svg width="420" height="295" viewBox="0 0 420 295" fill="none" xmlns="http://www.w3.org/2000/svg">
<path d="M252.193 215.163C252.193 218.278 251.624 221.204 250.488 223.94C249.351 226.634 247.731 228.97 245.626 230.949C243.563 232.927 241.08 234.485 238.175 235.621C235.313 236.758 232.156 237.326 228.704 237.326H212.224V193.127H228.704C232.156 193.127 235.313 193.695 238.175 194.832C241.08 195.926 243.563 197.462 245.626 199.441C247.731 201.419 249.351 203.756 250.488 206.45C251.624 209.144 252.193 212.048 252.193 215.163ZM244.047 215.29C244.047 213.101 243.669 211.101 242.911 209.291C242.195 207.439 241.164 205.839 239.817 204.492C238.512 203.145 236.912 202.093 235.018 201.335C233.124 200.577 231.019 200.199 228.704 200.199H219.99V230.254H228.704C231.019 230.254 233.124 229.896 235.018 229.181C236.912 228.423 238.512 227.392 239.817 226.087C241.164 224.74 242.195 223.161 242.911 221.351C243.669 219.499 244.047 217.479 244.047 215.29ZM275.458 204.682C275.458 205.566 275.605 206.323 275.9 206.955C276.195 207.586 276.721 208.176 277.479 208.723C278.278 209.27 279.352 209.775 280.699 210.238C282.088 210.701 283.835 211.185 285.94 211.69C288.255 212.28 290.297 212.932 292.064 213.648C293.875 214.364 295.369 215.248 296.548 216.3C297.726 217.31 298.61 218.51 299.2 219.899C299.831 221.246 300.147 222.846 300.147 224.698C300.147 226.802 299.747 228.676 298.947 230.317C298.189 231.959 297.116 233.348 295.727 234.485C294.338 235.621 292.675 236.484 290.739 237.074C288.802 237.663 286.676 237.958 284.361 237.958C280.951 237.958 277.689 237.389 274.574 236.253C271.459 235.074 268.576 233.285 265.924 230.886L270.596 225.329C272.743 227.181 274.911 228.613 277.1 229.623C279.289 230.591 281.772 231.075 284.551 231.075C286.95 231.075 288.844 230.57 290.233 229.56C291.665 228.549 292.38 227.181 292.38 225.455C292.38 224.656 292.233 223.94 291.938 223.309C291.686 222.677 291.181 222.109 290.423 221.604C289.707 221.057 288.697 220.551 287.392 220.088C286.129 219.625 284.466 219.141 282.404 218.636C280.046 218.089 277.942 217.479 276.09 216.805C274.279 216.131 272.743 215.29 271.48 214.279C270.259 213.269 269.312 212.048 268.639 210.617C268.007 209.186 267.692 207.439 267.692 205.376C267.692 203.44 268.071 201.693 268.828 200.136C269.586 198.536 270.617 197.168 271.922 196.031C273.269 194.895 274.869 194.032 276.721 193.442C278.573 192.811 280.594 192.495 282.783 192.495C286.024 192.495 288.928 192.979 291.496 193.948C294.106 194.874 296.548 196.242 298.821 198.052L294.653 203.924C292.633 202.451 290.633 201.335 288.655 200.577C286.676 199.778 284.677 199.378 282.656 199.378C280.383 199.378 278.615 199.904 277.352 200.956C276.09 201.967 275.458 203.208 275.458 204.682ZM356.573 231.201C355.479 232.127 354.258 233.011 352.911 233.853C351.606 234.695 350.175 235.432 348.618 236.063C347.102 236.695 345.46 237.179 343.692 237.516C341.925 237.894 340.072 238.084 338.136 238.084C334.684 238.084 331.548 237.516 328.728 236.379C325.907 235.2 323.487 233.601 321.466 231.58C319.488 229.518 317.952 227.097 316.857 224.319C315.763 221.541 315.215 218.531 315.215 215.29C315.215 212.175 315.763 209.228 316.857 206.45C317.994 203.671 319.572 201.251 321.593 199.188C323.613 197.084 326.013 195.421 328.791 194.2C331.611 192.979 334.684 192.369 338.01 192.369C339.946 192.369 341.693 192.516 343.25 192.811C344.85 193.064 346.323 193.442 347.67 193.948C349.017 194.453 350.28 195.084 351.459 195.842C352.68 196.557 353.858 197.399 354.995 198.368L350.07 204.24C349.228 203.524 348.365 202.872 347.481 202.282C346.597 201.693 345.671 201.209 344.703 200.83C343.735 200.409 342.661 200.093 341.483 199.883C340.346 199.63 339.083 199.504 337.694 199.504C335.673 199.504 333.779 199.925 332.011 200.767C330.285 201.567 328.77 202.682 327.465 204.113C326.202 205.545 325.192 207.207 324.434 209.102C323.719 210.996 323.361 213.016 323.361 215.163C323.361 217.436 323.719 219.541 324.434 221.478C325.15 223.414 326.16 225.098 327.465 226.529C328.812 227.918 330.391 229.012 332.201 229.812C334.053 230.612 336.115 231.012 338.389 231.012C340.493 231.012 342.451 230.717 344.261 230.128C346.113 229.497 347.713 228.676 349.06 227.665V219.394H337.757V212.638H356.573V231.201ZM405.457 223.687V193.127H413.097V237.326H406.593L382.22 205.881V237.326H374.58V193.127H381.778L405.457 223.687Z" fill="#1E1E1E"/>
<path d="M84.1419 161.76C85.7287 162.274 87.2277 162.899 88.6389 163.634C89.9943 164.349 91.2987 165.203 92.5522 166.198C93.7676 167.21 94.8927 168.427 95.9275 169.849C96.9826 171.215 97.9462 172.832 98.8181 174.702C100.188 177.639 100.918 180.597 101.006 183.575C101.095 186.553 100.65 189.384 99.6735 192.07C98.6405 194.734 97.1054 197.169 95.0681 199.374C93.0307 201.578 90.5624 203.356 87.6631 204.709C84.802 206.044 81.8812 206.802 78.9007 206.985C75.9025 207.129 73.0416 206.722 70.3182 205.763C67.5566 204.821 65.0545 203.341 62.8119 201.321C60.5311 199.319 58.679 196.793 57.2554 193.741C56.4012 191.91 55.7797 190.179 55.3909 188.549C54.9843 186.881 54.7735 185.283 54.7585 183.758C54.7054 182.25 54.8112 180.784 55.0759 179.36C55.3406 177.935 55.7083 176.533 56.179 175.152L63.4949 177.244C62.7545 179.54 62.3447 181.798 62.2655 184.018C62.1863 186.238 62.6806 188.493 63.7482 190.782C64.638 192.689 65.8469 194.285 67.3751 195.57C68.8473 196.834 70.5077 197.755 72.3564 198.332C74.167 198.928 76.0818 199.149 78.101 198.997C80.1202 198.845 82.1217 198.306 84.1054 197.381C86.0891 196.455 87.8071 195.259 89.2595 193.792C90.6736 192.343 91.7534 190.724 92.4988 188.937C93.2442 187.149 93.6247 185.276 93.6403 183.318C93.6 181.339 93.1349 179.396 92.2452 177.489C91.1063 175.048 89.6698 173.163 87.9357 171.835C86.1634 170.525 84.0758 169.386 81.6728 168.416L84.1419 161.76Z" fill="#1E1E1E"/>
<path d="M61.1074 105.198L109.655 106.915L106.105 114.317L94.5446 113.744L85.5057 132.588L93.1609 141.302L89.7201 148.475L57.9943 111.688L61.1074 105.198ZM87.1102 113.329L67.8652 112.571L80.529 127.049L87.1102 113.329Z" fill="#1E1E1E"/>
<path d="M158.945 91.0128L150.039 93.134L135.904 80.6628L126.445 82.9157L130.015 97.9032L122.46 99.7026L112.219 56.7058L131.383 52.1415C133.84 51.5563 136.13 51.3572 138.251 51.5443C140.404 51.6806 142.297 52.1817 143.932 53.0473C145.597 53.8623 147.003 55.042 148.15 56.5863C149.287 58.0897 150.104 59.8856 150.601 61.974C151.03 63.7757 151.149 65.4566 150.958 67.0166C150.799 68.526 150.4 69.9407 149.762 71.2609C149.115 72.5401 148.249 73.72 147.165 74.8003C146.112 75.83 144.877 76.73 143.459 77.5004L158.945 91.0128ZM143.026 64.2326C142.46 61.8575 141.258 60.2615 139.419 59.4446C137.57 58.5868 135.233 58.4943 132.408 59.1672L121.413 61.7859L124.851 76.2205L135.907 73.5872C138.61 72.9436 140.603 71.7763 141.888 70.0856C143.173 68.3949 143.552 66.4439 143.026 64.2326Z" fill="#1E1E1E"/>
<path d="M221.804 104.609C219.833 107.022 217.529 108.944 214.891 110.377C212.253 111.81 209.47 112.689 206.541 113.014C203.639 113.306 200.709 113.033 197.753 112.194C194.796 111.356 191.998 109.858 189.357 107.701C186.716 105.544 184.677 103.117 183.238 100.42C181.826 97.69 180.99 94.8874 180.73 92.0117C180.47 89.136 180.779 86.2628 181.656 83.3922C182.534 80.5215 183.958 77.88 185.928 75.4675C187.899 73.055 190.203 71.1325 192.841 69.6999C195.479 68.2672 198.249 67.4046 201.151 67.112C204.08 66.7869 207.023 67.0437 209.979 67.8825C212.936 68.7212 215.734 70.2192 218.375 72.3762C221.016 74.5332 223.042 76.9765 224.454 79.7062C225.893 82.4032 226.742 85.1895 227.002 88.0652C227.262 90.9409 226.953 93.8141 226.076 96.6847C225.198 99.5554 223.774 102.197 221.804 104.609ZM215.416 99.5543C216.774 97.8917 217.759 96.0872 218.37 94.1408C219.041 92.1884 219.307 90.232 219.17 88.2714C219.064 86.3374 218.561 84.4586 217.659 82.6349C216.757 80.8111 215.459 79.2069 213.763 77.8221C212.068 76.4374 210.237 75.4851 208.27 74.9654C206.362 74.4398 204.45 74.3184 202.534 74.6013C200.645 74.8516 198.794 75.4869 196.982 76.5072C195.23 77.5215 193.675 78.86 192.316 80.5226C190.958 82.1852 189.944 83.9927 189.273 85.9451C188.662 87.8914 188.408 89.8316 188.514 91.7656C188.651 93.7261 189.171 95.6183 190.073 97.442C190.975 99.2658 192.273 100.87 193.969 102.255C195.664 103.64 197.465 104.595 199.373 105.12C201.34 105.64 203.268 105.775 205.158 105.525C207.074 105.242 208.908 104.593 210.661 103.579C212.473 102.558 214.058 101.217 215.416 99.5543Z" fill="#1E1E1E"/>
<path d="M211.601 138.191L255.795 137.505L255.916 145.27L218.793 145.847L219.153 169.08L212.082 169.19L211.601 138.191Z" fill="#1E1E1E"/>
</svg>
